<svg width="541" height="588" viewBox="0 0 541 588" fill="none" xmlns="http://www.w3.org/2000/svg">
<path d="M0.00292969 74.5008C0.00292969 34.8948 34.6422 4.20748 73.9593 8.98205L481.959 58.5285C515.09 62.5518 540.003 90.6736 540.003 124.047V513.501C540.003 553.107 505.364 583.794 466.046 579.02L58.0465 529.473C24.9163 525.45 0.00292969 497.328 0.00292969 463.955V74.5008Z" fill="#FBBD08"/>
<mask id="mask0_363_8" style="mask-type:alpha" maskUnits="userSpaceOnUse" x="193" y="490" width="327" height="96">
<g clip-path="url(#clip0_363_8)">
<path d="M239.981 542.975C245.152 543.609 250.109 537.895 251.052 530.211C251.996 522.527 248.569 515.783 243.398 515.148C238.227 514.513 233.27 520.227 232.327 527.912C231.383 535.596 234.81 542.34 239.981 542.975Z" fill="#FBB03B"/>
<path d="M393.229 548.102C402.161 549.144 408.911 554.169 408.313 559.33C407.714 564.491 400.981 559.753 392.049 558.712C383.118 557.67 375.369 560.723 375.97 555.572C376.57 550.42 384.296 547.073 393.229 548.102Z" fill="#FBB03B"/>
<path d="M300.112 541.94C301.822 537.862 300.341 533.358 296.803 531.881C293.266 530.404 289.012 532.512 287.302 536.59C285.592 540.668 287.074 545.171 290.611 546.648C294.148 548.126 298.402 546.018 300.112 541.94Z" fill="#FBB03B"/>
<path d="M491.898 550.583C494.162 547.759 493.702 543.638 490.869 541.377C488.036 539.117 483.904 539.573 481.639 542.397C479.375 545.221 479.835 549.342 482.668 551.603C485.501 553.863 489.633 553.407 491.898 550.583Z" fill="#FBB03B"/>
<path d="M515.152 564.317C515.3 562.587 515.399 560.874 515.441 559.177C515.628 551.13 514.453 543.61 510.531 539.115C510.141 538.661 509.716 538.237 509.26 537.848C508.854 537.496 508.424 537.17 507.974 536.874C492.461 526.766 478.508 531.706 473.222 534.298C469.835 535.96 466.187 537.368 462.113 537.034C461.491 536.984 460.872 536.893 460.262 536.76C459.591 536.62 458.931 536.436 458.284 536.209C456.217 535.483 453.945 536.299 451.883 538.5C450.538 539.994 449.472 541.715 448.734 543.584C448.505 544.139 448.301 544.728 448.105 545.331C446.605 550.066 446.489 555.869 448.744 561.071C449.653 563.188 450.6 565.135 451.427 566.854C453.692 571.564 455.365 575.049 455.341 578.668L457.112 578.886C457.193 574.751 455.342 570.904 453.031 566.089C452.172 564.302 451.286 562.456 450.379 560.366C448.344 555.683 448.393 550.504 449.668 546.211C450.471 546.563 451.32 546.796 452.19 546.902C454.523 547.2 456.878 546.564 458.74 545.132C460.601 543.7 461.817 541.59 462.12 539.265C462.139 539.112 462.157 538.963 462.176 538.811C466.619 539.112 470.587 537.57 474.008 535.892C479.015 533.432 492.253 528.748 507 538.361C507.374 538.606 507.732 538.877 508.069 539.171C501.887 546.249 490.799 560.817 495.139 569.933C497 573.819 499.388 575.103 501.446 575.356C501.965 575.417 502.489 575.421 503.008 575.367C506.437 575.007 509.994 572.238 512.923 568.025C512.149 573.857 511.042 579.64 509.606 585.346L511.412 585.568C512.843 579.885 514.486 572.096 515.152 564.317ZM428.183 552.706C428.129 551.457 427.963 550.216 427.686 548.996C427.063 546.307 425.967 543.749 424.449 541.441C425.478 538.295 425.67 530.517 423.015 529.625C421.37 529.079 419.009 531.307 417.218 533.827C412.399 530.236 406.256 527.716 399.409 526.875C392.563 526.035 385.998 526.998 380.453 529.316C379.313 526.433 377.571 523.701 375.845 523.833C373.055 524.042 371.355 531.649 371.593 534.951C369.573 536.817 367.898 539.022 366.643 541.466C366.084 542.567 365.623 543.715 365.266 544.896C365.009 545.725 364.808 546.57 364.663 547.425C364.609 547.727 364.565 548.034 364.527 548.344C364.397 549.401 364.349 550.467 364.384 551.532C364.53 555.223 365.595 558.82 367.483 561.999C366.522 563.793 365.716 565.666 365.074 567.596L366.876 567.818C367.355 566.423 367.926 565.061 368.584 563.74C368.805 563.292 369.037 562.855 369.281 562.421C369.353 562.286 369.39 562.134 369.386 561.98C369.382 561.826 369.339 561.676 369.26 561.544C368.992 561.106 368.745 560.665 368.514 560.214C367.186 557.71 366.396 554.958 366.195 552.133C367.421 552.386 368.399 552.229 368.708 551.635C369.14 550.813 368.108 549.384 366.333 548.277C366.448 547.432 366.622 546.597 366.853 545.776C368.812 546.626 370.621 546.67 371.065 545.821C371.531 544.925 370.285 543.341 368.253 542.209C369.243 540.291 370.517 538.532 372.032 536.993C374.598 534.415 377.657 532.375 381.027 530.995C386.321 528.768 392.613 527.845 399.188 528.652C405.764 529.46 411.65 531.881 416.237 535.321C419.174 537.474 421.648 540.192 423.514 543.314C424.627 545.192 425.444 547.229 425.938 549.353C423.777 549.98 422.266 551.175 422.498 552.137C422.715 553.037 424.384 553.438 426.417 553.136C426.442 554.002 426.405 554.868 426.307 555.728C424.424 556.372 423.171 557.465 423.378 558.347C423.524 558.968 424.358 559.342 425.516 559.429C424.636 562.116 423.204 564.592 421.313 566.697C420.98 567.076 420.632 567.445 420.271 567.805C420.161 567.913 420.081 568.048 420.041 568.197C420 568.345 420.001 568.502 420.041 568.651C420.169 569.13 420.285 569.613 420.395 570.102C420.714 571.542 420.938 573.002 421.065 574.471L422.865 574.692C422.709 572.664 422.38 570.652 421.882 568.679C424.471 566.066 426.371 562.854 427.413 559.329C427.713 558.291 427.93 557.23 428.06 556.156C428.095 555.869 428.132 555.568 428.148 555.275C428.216 554.421 428.228 553.562 428.183 552.706ZM321.228 509.287C306.887 507.083 298.408 513.972 293.801 520.235C287.625 526.955 277.924 538.395 278.123 543.817C278.346 549.927 280.811 551.724 282.115 552.243C282.334 553.029 282.608 553.799 282.937 554.547C283.373 555.542 283.728 556.57 284 557.621L285.9 557.854C285.584 556.477 285.137 555.132 284.567 553.838C284.278 553.179 284.036 552.501 283.843 551.808C283.764 551.524 283.697 551.239 283.635 550.955C281.937 543.079 286.932 535.502 289.475 531.644C290.262 530.447 290.78 529.659 290.991 529.085C292.307 525.504 299.882 507.794 320.97 511.033C331.537 512.657 337.151 518.968 339.998 523.981C344.464 531.836 345.05 541.627 343.033 546.553C339.559 555.047 333.496 560.128 328.933 558.376C326.935 557.612 325.648 556.431 324.992 554.777C323.764 551.636 324.819 546.662 328.129 540.007C334.4 527.371 330.18 522.231 329.999 522.016C329.925 521.927 329.834 521.854 329.731 521.8C329.628 521.747 329.515 521.715 329.399 521.705C329.284 521.696 329.167 521.71 329.057 521.746C328.947 521.782 328.845 521.84 328.758 521.916C328.578 522.066 328.465 522.281 328.443 522.514C328.421 522.747 328.492 522.979 328.64 523.161C328.676 523.203 332.222 527.765 326.536 539.223C322.942 546.458 321.898 551.768 323.335 555.442C324.162 557.56 325.827 559.111 328.286 560.054C330.684 560.972 333.321 560.506 335.864 558.91C335.519 560.222 335.112 561.965 334.809 563.886L336.585 564.104C336.97 561.723 337.527 559.373 338.252 557.072C338.252 557.072 338.255 557.055 338.256 557.047C340.721 554.747 342.975 551.386 344.667 547.246C346.81 542.004 346.438 531.769 341.529 523.131C338.492 517.775 332.504 511.019 321.228 509.287ZM289.313 528.488C288.925 529.25 288.481 529.982 287.984 530.677C285.469 534.498 280.676 541.761 281.613 549.713C280.847 548.811 280.017 547.075 279.893 543.757C279.768 540.44 284.584 533.591 289.79 527.273C289.583 527.77 289.413 528.177 289.313 528.488ZM259.565 533.967C260.69 524.805 258.739 516.061 254.62 509.074C254.703 508.764 254.764 508.449 254.803 508.132C255.204 504.867 253.863 497.128 251.073 496.785C249.729 496.62 248.302 498.194 247.142 500.243C242.975 496.751 237.883 494.539 232.483 493.876C227.083 493.213 221.607 494.127 216.719 496.507C216.08 494.24 215.077 492.366 213.741 492.202C210.948 491.859 207.775 499.046 207.374 502.308C207.334 502.625 207.317 502.944 207.321 503.263C201.642 509.05 197.626 517.059 196.5 526.223C195.685 532.653 196.423 539.186 198.653 545.276C198.231 545.837 197.826 546.41 197.436 546.995L199.4 547.236C199.704 546.803 200.019 546.379 200.345 545.962C200.375 545.922 200.402 545.881 200.428 545.838C200.439 545.815 200.449 545.791 200.457 545.766L200.46 545.74L200.465 545.7C200.468 545.677 200.47 545.657 200.473 545.637C200.475 545.617 200.473 545.637 200.475 545.617C200.482 545.588 200.486 545.558 200.486 545.528L200.513 545.31L200.437 545.117L200.42 545.071C198.165 539.133 197.405 532.735 198.207 526.438C199.225 518.15 202.695 510.853 207.655 505.42C210.32 502.47 213.518 500.046 217.081 498.274C221.75 495.916 227.018 494.998 232.214 495.636C237.411 496.274 242.3 498.439 246.26 501.857C249.287 504.439 251.802 507.564 253.674 511.07C257.172 517.542 258.774 525.461 257.757 533.75C257.01 540.06 254.723 546.089 251.097 551.311C251.095 551.319 251.094 551.328 251.094 551.337C251.084 551.354 251.072 551.37 251.059 551.385L251.056 551.411C251.053 551.421 251.051 551.432 251.052 551.442C251.028 551.489 251.009 551.539 250.996 551.59C250.993 551.596 250.993 551.603 250.993 551.61C250.991 551.619 250.989 551.629 250.99 551.639C250.985 551.664 250.982 551.69 250.98 551.716L250.978 551.733C250.975 551.759 250.972 551.782 250.969 551.805C250.966 551.828 250.963 551.857 250.959 551.888C250.959 551.914 250.961 551.939 250.964 551.965L250.96 552.002C250.96 552.002 250.956 552.031 250.969 552.044C250.982 552.096 251 552.147 251.02 552.196C251.236 552.68 251.436 553.168 251.627 553.661L253.608 553.904C253.373 553.242 253.118 552.587 252.841 551.939C256.488 546.57 258.794 540.408 259.565 533.967Z" fill="#2D3030"/>
<path d="M240.879 528.731C239.912 528.613 238.902 530.339 238.626 532.584C238.351 534.83 238.912 536.752 239.88 536.871C240.847 536.99 241.86 535.263 242.136 533.015C242.412 530.767 241.849 528.851 240.879 528.731Z" fill="#2D3030"/>
<path d="M215.884 525.662C214.917 525.544 213.907 527.27 213.631 529.515C213.355 531.761 213.917 533.683 214.884 533.802C215.852 533.921 216.862 532.194 217.138 529.946C217.414 527.698 216.854 525.781 215.884 525.662Z" fill="#2D3030"/>
<path d="M230.851 542.075C230.617 542.046 230.382 542.111 230.196 542.256C230.011 542.4 229.89 542.612 229.862 542.845C229.847 543.035 229.794 543.219 229.706 543.388C229.618 543.556 229.497 543.705 229.349 543.825C229.202 543.946 229.032 544.035 228.849 544.088C228.666 544.14 228.474 544.156 228.285 544.132C228.096 544.109 227.913 544.048 227.749 543.953C227.584 543.857 227.44 543.729 227.326 543.577C227.212 543.425 227.131 543.251 227.086 543.066C227.041 542.881 227.035 542.69 227.066 542.502L227.978 535.075L228.358 535.121C228.596 535.15 228.835 535.084 229.023 534.938C229.212 534.791 229.334 534.575 229.363 534.338C229.392 534.102 229.326 533.863 229.179 533.675C229.031 533.487 228.815 533.365 228.578 533.335L226.079 533.029C225.841 532.999 225.602 533.066 225.413 533.212C225.225 533.359 225.103 533.575 225.074 533.812C225.044 534.048 225.111 534.287 225.258 534.475C225.406 534.663 225.622 534.785 225.859 534.814L226.228 534.86L225.316 542.287C225.301 542.477 225.248 542.661 225.16 542.83C225.072 542.998 224.951 543.147 224.803 543.267C224.656 543.387 224.486 543.477 224.303 543.529C224.12 543.582 223.928 543.597 223.739 543.574C223.55 543.551 223.367 543.49 223.203 543.394C223.038 543.299 222.894 543.171 222.78 543.019C222.666 542.866 222.585 542.693 222.54 542.508C222.495 542.323 222.489 542.131 222.52 541.944C222.535 541.718 222.462 541.494 222.317 541.32C222.172 541.145 221.966 541.032 221.74 541.005C221.514 540.977 221.286 541.036 221.103 541.171C220.92 541.305 220.796 541.504 220.755 541.727C220.682 542.355 220.798 542.991 221.088 543.553C221.378 544.115 221.829 544.578 222.384 544.884C222.94 545.189 223.573 545.323 224.204 545.268C224.836 545.213 225.436 544.971 225.929 544.575C226.312 545.079 226.836 545.458 227.435 545.664C228.034 545.87 228.681 545.894 229.294 545.732C229.906 545.57 230.456 545.229 230.874 544.754C231.291 544.279 231.557 543.69 231.638 543.064C231.652 542.947 231.643 542.829 231.611 542.716C231.578 542.603 231.524 542.498 231.451 542.406C231.378 542.314 231.287 542.237 231.184 542.18C231.081 542.124 230.968 542.088 230.851 542.075Z" fill="#2D3030"/>
<path d="M402.656 559.201C403.442 559.297 404.156 558.741 404.252 557.957C404.349 557.174 403.79 556.461 403.004 556.364C402.219 556.268 401.504 556.825 401.408 557.608C401.312 558.391 401.871 559.104 402.656 559.201Z" fill="#2D3030"/>
<path d="M381.8 556.64C382.586 556.737 383.301 556.18 383.397 555.396C383.493 554.613 382.934 553.9 382.149 553.803C381.363 553.707 380.648 554.264 380.552 555.047C380.456 555.83 381.015 556.544 381.8 556.64Z" fill="#2D3030"/>
<path d="M485.415 546.292C486.2 546.389 486.915 545.832 487.011 545.049C487.107 544.265 486.548 543.552 485.763 543.456C484.978 543.359 484.263 543.916 484.167 544.699C484.07 545.483 484.629 546.196 485.415 546.292Z" fill="#2D3030"/>
<path d="M477.093 542.665C477.878 542.761 478.593 542.205 478.689 541.421C478.785 540.638 478.226 539.925 477.441 539.828C476.655 539.732 475.941 540.289 475.844 541.072C475.748 541.855 476.307 542.568 477.093 542.665Z" fill="#2D3030"/>
<path d="M498.001 530.681C499.313 531.253 500.553 531.32 500.762 530.833C500.971 530.346 500.082 529.491 498.77 528.919C497.458 528.347 496.218 528.279 496.009 528.766C495.8 529.253 496.689 530.109 498.001 530.681Z" fill="#2D3030"/>
<path d="M487.034 528.393C488.449 528.17 489.526 527.562 489.441 527.039C489.357 526.515 488.145 526.27 486.732 526.496C485.319 526.722 484.239 527.327 484.324 527.85C484.409 528.373 485.621 528.618 487.034 528.393Z" fill="#2D3030"/>
<path d="M474.8 554.671C474.6 554.547 474.358 554.507 474.129 554.56C473.9 554.613 473.701 554.755 473.576 554.954C471.705 557.954 468.273 559.13 465.034 557.881C464.924 557.839 464.807 557.819 464.689 557.822C464.571 557.825 464.455 557.851 464.348 557.899C464.24 557.947 464.143 558.015 464.062 558.101C463.981 558.186 463.918 558.286 463.876 558.396C463.834 558.506 463.814 558.622 463.817 558.74C463.82 558.857 463.847 558.973 463.895 559.08C463.943 559.187 464.012 559.284 464.097 559.365C464.183 559.446 464.283 559.509 464.393 559.551C465.1 559.826 465.837 560.015 466.589 560.112C469.932 560.522 473.157 558.983 475.086 555.909C475.15 555.81 475.193 555.698 475.214 555.582C475.234 555.465 475.23 555.346 475.204 555.23C475.177 555.115 475.128 555.006 475.058 554.91C474.989 554.814 474.901 554.732 474.8 554.671Z" fill="#2D3030"/>
<path d="M311.905 540.74C311.623 540.705 311.338 540.755 311.085 540.882C310.832 541.009 310.623 541.208 310.483 541.454C310.344 541.7 310.281 541.982 310.302 542.264C310.323 542.545 310.427 542.815 310.602 543.038C310.776 543.26 311.013 543.427 311.282 543.515C311.552 543.604 311.841 543.611 312.114 543.535C312.387 543.46 312.632 543.305 312.816 543.091C313.001 542.877 313.118 542.613 313.153 542.333C313.199 541.957 313.094 541.577 312.859 541.279C312.625 540.98 312.282 540.786 311.905 540.74Z" fill="#2D3030"/>
<path d="M294.996 538.664C294.715 538.629 294.43 538.677 294.176 538.804C293.923 538.931 293.713 539.13 293.573 539.376C293.433 539.622 293.369 539.903 293.39 540.185C293.411 540.467 293.515 540.737 293.69 540.96C293.864 541.183 294.101 541.349 294.37 541.438C294.639 541.527 294.929 541.534 295.202 541.459C295.475 541.384 295.72 541.229 295.905 541.015C296.09 540.801 296.207 540.537 296.241 540.256C296.288 539.881 296.182 539.502 295.949 539.203C295.716 538.905 295.373 538.711 294.996 538.664Z" fill="#2D3030"/>
<path d="M306.116 549.233C305.882 549.204 305.646 549.269 305.46 549.413C305.275 549.558 305.154 549.77 305.124 550.003C305.085 550.321 304.937 550.617 304.705 550.84C304.474 551.063 304.172 551.2 303.852 551.228C303.754 551.237 303.657 551.236 303.56 551.224C303.19 551.178 302.853 550.987 302.623 550.694C302.394 550.401 302.29 550.029 302.334 549.66L302.684 546.815L303.052 546.86C303.29 546.889 303.529 546.822 303.717 546.675C303.905 546.529 304.028 546.314 304.057 546.077C304.086 545.841 304.019 545.602 303.872 545.414C303.724 545.226 303.509 545.104 303.272 545.074L300.761 544.766C300.643 544.752 300.524 544.76 300.41 544.792C300.296 544.823 300.189 544.877 300.096 544.95C299.955 545.059 299.85 545.208 299.794 545.377C299.738 545.546 299.734 545.728 299.782 545.899C299.83 546.071 299.927 546.224 300.063 546.34C300.198 546.457 300.365 546.53 300.542 546.552L300.907 546.597L300.558 549.442C300.513 549.811 300.322 550.147 300.028 550.376C299.734 550.605 299.361 550.709 298.991 550.663C298.894 550.651 298.799 550.629 298.707 550.596C298.402 550.492 298.142 550.286 297.97 550.014C297.799 549.741 297.727 549.418 297.765 549.099C297.78 548.873 297.707 548.649 297.562 548.475C297.417 548.3 297.211 548.187 296.985 548.16C296.759 548.132 296.532 548.191 296.349 548.326C296.166 548.46 296.041 548.659 296.001 548.882C295.908 549.651 296.099 550.426 296.538 551.064C296.977 551.702 297.634 552.159 298.386 552.349C298.472 553.817 299.439 555.034 300.749 555.195C302.059 555.356 303.291 554.409 303.73 553.005C304.505 553.002 305.252 552.717 305.832 552.204C306.412 551.692 306.785 550.986 306.88 550.218C306.908 549.987 306.843 549.754 306.7 549.57C306.557 549.385 306.347 549.264 306.116 549.233ZM300.901 554.025C300.205 553.939 299.685 553.266 299.592 552.407C299.926 552.366 300.25 552.268 300.551 552.119L300.483 552.671C300.464 552.826 300.508 552.983 300.605 553.107C300.701 553.231 300.844 553.311 301 553.33C301.156 553.349 301.313 553.306 301.437 553.209C301.561 553.113 301.642 552.971 301.661 552.815L301.722 552.313C301.975 552.518 302.259 552.683 302.563 552.801C302.256 553.582 301.592 554.11 300.893 554.024L300.901 554.025Z" fill="#2D3030"/>
<path d="M313.826 534.64C312.514 534.068 311.274 534 311.066 534.485C310.857 534.969 311.745 535.83 313.057 536.402C314.369 536.974 315.609 537.042 315.817 536.554C316.026 536.067 315.143 535.213 313.826 534.64Z" fill="#2D3030"/>
<path d="M298.176 532.759C298.055 532.243 296.83 532.081 295.435 532.399C294.04 532.717 293.004 533.395 293.122 533.913C293.239 534.432 294.47 534.592 295.866 534.271C297.261 533.949 298.294 533.275 298.176 532.759Z" fill="#2D3030"/>
<path d="M308.831 516.814C309.402 515.855 311.359 515.886 313.02 516.874C313.569 517.196 314.058 517.611 314.465 518.1C314.537 518.198 314.627 518.28 314.731 518.341C314.835 518.402 314.951 518.442 315.07 518.457C315.19 518.473 315.312 518.464 315.428 518.431C315.544 518.398 315.653 518.342 315.746 518.266C315.84 518.19 315.917 518.096 315.973 517.989C316.029 517.882 316.063 517.765 316.072 517.645C316.081 517.525 316.066 517.404 316.027 517.29C315.988 517.176 315.926 517.071 315.845 516.982C315.306 516.333 314.659 515.782 313.932 515.354C311.326 513.801 308.414 514.044 307.304 515.901C306.998 516.413 306.853 517.004 306.888 517.598C305.1 518.023 303.803 519.155 303.62 520.651C303.541 521.286 303.667 521.93 303.978 522.49C304.314 523.086 304.783 523.597 305.35 523.982C306.29 524.624 307.374 525.025 308.506 525.147L308.794 525.183C309.024 525.192 309.248 525.113 309.42 524.962C309.592 524.811 309.699 524.599 309.718 524.371C309.738 524.143 309.668 523.916 309.524 523.738C309.379 523.56 309.172 523.444 308.944 523.415L308.708 523.386C307.943 523.297 307.207 523.045 306.549 522.645C305.905 522.243 305.466 521.731 305.372 521.207C305.351 521.094 305.347 520.979 305.362 520.865C305.45 520.141 306.252 519.563 307.334 519.32C307.952 519.183 308.59 519.153 309.218 519.231C309.287 519.24 309.356 519.248 309.425 519.257C309.985 519.34 310.528 519.511 311.035 519.763C311.139 519.822 311.255 519.86 311.374 519.873C311.494 519.887 311.615 519.876 311.73 519.842C311.845 519.808 311.952 519.75 312.044 519.674C312.136 519.597 312.212 519.503 312.267 519.396C312.322 519.289 312.354 519.173 312.363 519.053C312.371 518.934 312.355 518.814 312.316 518.7C312.276 518.587 312.214 518.483 312.133 518.394C312.053 518.305 311.955 518.234 311.845 518.184C311.089 517.808 310.274 517.565 309.435 517.465C309.171 517.433 308.907 517.414 308.641 517.409C308.642 517.312 308.654 517.216 308.676 517.122C308.711 517.011 308.763 516.908 308.831 516.814Z" fill="#2D3030"/>
</g>
</mask>
<g mask="url(#mask0_363_8)">
<path d="M0.00384521 74.502C0.00384521 34.896 34.6431 4.2087 73.9603 8.98327L481.96 58.5297C515.09 62.553 540.004 90.6748 540.004 124.048V513.502C540.004 553.108 505.365 583.796 466.047 579.021L58.0474 529.475C24.9172 525.451 0.00384521 497.33 0.00384521 463.956V74.502Z" fill="#062D3E"/>
</g>
<defs>
<clipPath id="clip0_363_8">
<rect width="321" height="57" fill="white" transform="translate(200.934 490.002) rotate(7.00012)"/>
</clipPath>
</defs>
</svg>
